<?xml version="1.0" encoding="utf-8"?>
<!-- Generator: Adobe Illustrator 16.0.0, SVG Export Plug-In . SVG Version: 6.00 Build 0)  -->
<!DOCTYPE svg PUBLIC "-//W3C//DTD SVG 1.1//EN" "http://www.w3.org/Graphics/SVG/1.1/DTD/svg11.dtd">
<svg version="1.1" id="Layer_1" xmlns="http://www.w3.org/2000/svg" xmlns:xlink="http://www.w3.org/1999/xlink" x="0px" y="0px"
	 width="27.616px" height="37.842px" viewBox="86.342 11.077 27.616 37.842" enable-background="new 86.342 11.077 27.616 37.842"
	 xml:space="preserve">
<path d="M128.92,341.111c-0.381,0-0.779-0.021-1.199-0.053h1.18C128.92,341.089,128.92,341.111,128.92,341.111z"/>
<path fill="#8E3939" d="M341.584,301.578"/>
<g opacity="0.5">
</g>
<g>
	
		<radialGradient id="SVGID_1_" cx="-589.9849" cy="588.0972" r="47.1008" gradientTransform="matrix(-0.4408 -0.8976 0.4488 -0.2204 -505.9906 -355.8586)" gradientUnits="userSpaceOnUse">
		<stop  offset="0" style="stop-color:#ECB438"/>
		<stop  offset="0.1946" style="stop-color:#E8913B"/>
		<stop  offset="0.4103" style="stop-color:#E4723D"/>
		<stop  offset="0.6205" style="stop-color:#E15C3F"/>
		<stop  offset="0.8207" style="stop-color:#E04F40"/>
		<stop  offset="1" style="stop-color:#DF4A40"/>
	</radialGradient>
	<path fill="url(#SVGID_1_)" d="M23.002,47.277C20.278,46.732,9.394,43.919,8.009,33.63c-0.596-4.43,2.102-7.361,4.71-10.197
		c2.052-2.232,3.989-4.336,3.966-6.951c-0.02-2.084-0.622-4.142-0.958-5.063c2.465,0.561,13.703,3.651,15.046,13.643
		c0.599,4.443-2.231,7.408-4.97,10.273c-2.123,2.225-4.127,4.32-4.109,6.877C21.709,44.289,22.553,46.353,23.002,47.277z"/>
	<path fill="#FF9C52" d="M16.108,11.766c3.079,0.77,13.162,3.986,14.417,13.331c0.584,4.324-2.207,7.244-4.903,10.066
		c-2.158,2.26-4.197,4.396-4.178,7.051c0.014,1.84,0.643,3.639,1.118,4.715c-1.358-0.311-3.828-1.01-6.357-2.412
		c-4.645-2.576-7.318-6.25-7.947-10.92c-0.582-4.312,2.076-7.201,4.646-9.996c2.086-2.268,4.056-4.408,4.032-7.121
		C16.919,14.702,16.464,12.865,16.108,11.766 M15.318,11.077c0.063,0.084,1.094,2.716,1.117,5.407
		c0.052,5.711-9.768,9.057-8.674,17.18c1.59,11.812,15.561,13.926,15.704,13.953c-0.065-0.084-1.502-2.715-1.521-5.406
		c-0.041-5.602,10.172-9.059,9.078-17.182C29.484,13.6,15.461,11.105,15.318,11.077L15.318,11.077z"/>
</g>
<g opacity="0.5">
</g>
<g>
	
		<radialGradient id="SVGID_2_" cx="-511.3179" cy="588.0972" r="47.0992" gradientTransform="matrix(-0.4408 -0.8976 0.4488 -0.2204 -392.6471 -285.2468)" gradientUnits="userSpaceOnUse">
		<stop  offset="0" style="stop-color:#F94F0D"/>
		<stop  offset="0.0669" style="stop-color:#EF460B"/>
		<stop  offset="0.317" style="stop-color:#D02806"/>
		<stop  offset="0.5605" style="stop-color:#BA1203"/>
		<stop  offset="0.7923" style="stop-color:#AD0501"/>
		<stop  offset="1" style="stop-color:#A80100"/>
	</radialGradient>
	<path fill="url(#SVGID_2_)" d="M101.669,47.277c-2.725-0.545-13.608-3.357-14.993-13.646c-0.596-4.43,2.102-7.361,4.71-10.197
		c2.052-2.232,3.989-4.336,3.966-6.951c-0.02-2.084-0.622-4.142-0.958-5.063c2.465,0.561,13.703,3.651,15.046,13.643
		c0.599,4.443-2.231,7.408-4.97,10.273c-2.123,2.225-4.127,4.32-4.109,6.877C100.376,44.289,101.22,46.353,101.669,47.277z"/>
	<path fill="none" d="M94.775,11.766c3.079,0.77,13.162,3.986,14.417,13.331c0.584,4.324-2.207,7.244-4.903,10.066
		c-2.158,2.26-4.197,4.396-4.178,7.051c0.014,1.84,0.643,3.639,1.118,4.715c-1.358-0.311-3.828-1.01-6.357-2.412
		c-4.645-2.576-7.318-6.25-7.947-10.92c-0.582-4.312,2.076-7.201,4.646-9.996c2.086-2.268,4.056-4.408,4.032-7.121
		C95.586,14.702,95.131,12.865,94.775,11.766 M93.985,11.077c0.063,0.084,1.094,2.716,1.117,5.407
		c0.052,5.711-9.768,9.057-8.674,17.18c1.59,11.812,15.561,13.926,15.704,13.953c-0.065-0.084-1.502-2.715-1.521-5.406
		c-0.041-5.602,10.172-9.059,9.078-17.182C108.151,13.6,94.128,11.105,93.985,11.077L93.985,11.077z"/>
</g>
<text transform="matrix(1 0 0 1 705.1665 425.4771)" font-family="'MyriadPro-Regular'" font-size="12">p {</text>
<text transform="matrix(1 0 0 1 705.1665 439.8765)" font-family="'MyriadPro-Regular'" font-size="12">  margin-bottom: 1.3em;</text>
<text transform="matrix(1 0 0 1 705.1665 454.2769)" font-family="'MyriadPro-Regular'" font-size="12">  color: $light-grey;</text>
<text transform="matrix(1 0 0 1 705.1665 468.6763)" font-family="'MyriadPro-Regular'" font-size="12">  font-size: 1.25em;</text>
<text transform="matrix(1 0 0 1 705.1665 483.0767)" font-family="'MyriadPro-Regular'" font-size="12">}</text>
</svg>
