<?xml version="1.0" encoding="utf-8"?>
<!-- Generator: Adobe Illustrator 16.0.0, SVG Export Plug-In . SVG Version: 6.00 Build 0)  -->
<!DOCTYPE svg PUBLIC "-//W3C//DTD SVG 1.1//EN" "http://www.w3.org/Graphics/SVG/1.1/DTD/svg11.dtd">
<svg version="1.1" id="Layer_1" xmlns="http://www.w3.org/2000/svg" xmlns:xlink="http://www.w3.org/1999/xlink" x="0px" y="0px"
	 width="28.661px" height="36.541px" viewBox="7.672 10.699 28.661 36.541" enable-background="new 7.672 10.699 28.661 36.541"
	 xml:space="preserve">
<path fill="#EC7838" d="M21.947,41.839c0.02,2.69,1.45,5.32,1.52,5.4c-0.14-0.021-14.12-2.141-15.71-13.95
	c-1.09-8.12,8.73-11.47,8.68-17.181c-0.03-2.689-1.05-5.319-1.12-5.41c0.14,0.03,14.17,2.531,15.71,13.96
	C32.117,32.78,21.907,36.24,21.947,41.839z"/>
<path d="M128.92,341.111c-0.381,0-0.779-0.021-1.199-0.053h1.18C128.92,341.089,128.92,341.111,128.92,341.111z"/>
<path fill="#8E3939" d="M341.584,301.578"/>
<g opacity="0.5">
	
		<image overflow="visible" enable-background="new    " width="89" height="91" xlink:href="41E520C869C4C595.png"  transform="matrix(1 0 0 1 -20 -7.0005)">
	</image>
</g>
<g>
	<path fill="#983019" d="M21.947,41.839c0.02,2.69,1.45,5.32,1.52,5.4c-0.14-0.021-14.12-2.141-15.71-13.95
		c-1.09-8.12,8.73-11.47,8.68-17.181c-0.03-2.689-1.05-5.319-1.12-5.41c0.14,0.03,14.17,2.531,15.71,13.96
		C32.117,32.78,21.907,36.24,21.947,41.839z"/>
</g>
<text transform="matrix(1 0 0 1 705.1665 425.4771)" font-family="'MyriadPro-Regular'" font-size="12">p {</text>
<text transform="matrix(1 0 0 1 705.1665 439.8765)" font-family="'MyriadPro-Regular'" font-size="12">  margin-bottom: 1.3em;</text>
<text transform="matrix(1 0 0 1 705.1665 454.2769)" font-family="'MyriadPro-Regular'" font-size="12">  color: $light-grey;</text>
<text transform="matrix(1 0 0 1 705.1665 468.6763)" font-family="'MyriadPro-Regular'" font-size="12">  font-size: 1.25em;</text>
<text transform="matrix(1 0 0 1 705.1665 483.0767)" font-family="'MyriadPro-Regular'" font-size="12">}</text>
</svg>
